<svg xmlns="http://www.w3.org/2000/svg" title="flæði" width="500" height="186" viewBox="-2 -2 606.7 227.8" xmlns:v="https://vecta.io/nano"><defs><linearGradient id="A" x1="302.37" y1=".23" x2="302.37" y2="226.02" gradientUnits="userSpaceOnUse"><stop offset="0" stop-color="#0f2c6a"/><stop offset="1" stop-color="#138ccf"/></linearGradient></defs><g transform="translate(0 -.2)" fill="url(#A)"><path d="M38.4 116.1c-6.9-1.1-13.9-1.7-21.1-2.4-.1 1.3-.3 2.3-.3 3.3v97.9a16.2 16.2 0 0 0 1.2 5.8 3.5 3.5 0 0 0 2.4 1.9H41v-51.7l-.1-50c0-1.6-1.4-4.6-2.5-4.8z"/><path d="M121.9 154c-6-2.5-11.7-5.8-17.9-9v74.6c0 2.4.4 4.2 3.5 4.1H128v-26.9c0-11-.4-22 .2-32.9.2-5.3-1.6-7.9-6.3-9.9z"/><path d="M105.8 119.4c7.2 3.3 14.7 6.1 22.2 9.1V7h-24.7l.1 106.9c0 1.9 1 4.8 2.4 5.5z"/><path d="M13.6 101.1a11.8 11.8 0 0 1 3.4 1c1.4.6 2.9 1.8 4.3 1.7 8.8-.8 17.5-2.2 26.4-2.7s19.3-.1 28.9-.1H82c0-6.1-.2-11.5.1-16.8s-1.4-5.4-5.5-5.3L42 79c0-14.2-.3-27.7.2-41.3.3-8.2 8.3-15 16.7-14.6s14.5 1.8 22.4 2.8l2.5-21.3a6.7 6.7 0 0 0-2-1.2C68.5.1 55.3-1.7 41.9 3.5S19.6 20.6 18.2 34.9s-.8 25.8-1.2 38.7V79c-4.9 0-9.1-.2-13.2.1-1.3.2-3.5 1.8-3.6 2.8C-.1 88.2 0 94.4 0 101c5 0 9.3-.1 13.6.1z"/><path d="M213.2 102.5c16.1 1.8 24.7 10.7 24.3 26.7 0 3-1.2 4.1-3.9 4.5-7.1 1-14.3 1.6-21.3 3.1s-14.7 4.3-22.1 6.5c24.2 2.6 47.6-.7 71.7-5-.5-7.4-.4-14.5-1.5-21.5-2.8-16.3-12-27.6-27.8-33.1-22.2-7.7-43.7-4.2-64.6 3.3v23.4c15-5.6 29.5-9.6 45.2-7.9z"/><path d="M200.7 164.6c14.3-3.7 28.2-9.1 42.2-13.9 4.6-1.7 9-4 13.5-6-.9-.9-1.4-1-1.9-1-15.4 2-30.8 4.6-46.2 5.8-8.7.6-17.4-1-26.1-1.8-19.4-1.7-37.6-8-55.6-14.8-24.6-9.4-48.6-20.8-74.9-24.7-10.9-1.6-22.2-1.4-33.2-1.3-5.3 0-10.5 1.8-15.7 2.8 0 .3.1.7.1 1 8.7 0 17.3-.5 26 .1 17 1.1 32.7 7 47.9 14.3 23.7 11.4 45.5 26.4 70.3 35.6 17.5 6.6 35.6 8.5 53.6 3.9z"/><path d="M542.4 33c-4.2.3-5.2-1.5-5.1-5.4.3-6.8.1-13.6.1-20.6h-24.2c0 7.3-.2 14.4.1 21.4.1 4.1-1.8 4.6-5.3 4.5-5.4-.3-10.8-.1-16.2-.1h-25.2A4.3 4.3 0 0 1 464 30a5.2 5.2 0 0 1 1.4-3.8c.3-.4 2.2.6 3.3 1.1l10.6 3.8c-3.3-9.3-8.5-14.8-16.1-13.2s-7.5 8.4-7.6 15h-14.3c-5.3 0-7.8 2.2-7.7 6.7s2.6 6.3 7.7 6.4h17c4.5 13.6 11.1 19.3 19.8 17 5.4-1.4 9.4-8.1 8.2-13.8-3.2-.6-5.6-.5-6.6 3.7s-5.9 4.5-8.1 2.1-3.7-5.3-6.1-9h76.4c4.8 0 7.9-2.5 7.5-6.5s-2.6-6.9-7-6.5z"/><path d="M320.5 195.2l-18.6 15.1c12.4 10.2 26.8 14.3 42.2 15.3s30.4-3.1 44.8-9c1.3-.6 2.9-2.2 3-3.4.2-7.4.1-14.8.1-22.8-23.6 13.5-47 19-71.5 4.8z"/><path d="M604,35.1a17.1,17.1,0,0,0-15.4-13.5c-13.3-1-16.6,4.8-19.3,12.5-2.1,6,3.2,15.2,8.4,17s12.7.4,15.6-5.2c1.6-3.2,1-9.6-1.6-12s-6.3-3.3-9.4-1.1a7.6,7.6,0,0,0-2.8,5.4c.2,1.6,2.6,3,4,4.5l4.6-5.6c.3,2.3,1.3,4.5.6,5.7a7.9,7.9,0,0,1-4.7,3.7c-4.3,1-7.3-1.4-9-6.4a9.9,9.9,0,0,1,4-11.4c6.9-4.1,15-2.1,19,4.8s1.6,17.2-5.1,21.2-16,3.8-23.2-1.9a22.2,22.2,0,0,1-7.1-23.2c2.8-8.9,9.2-14.3,17.7-17.7a10.6,10.6,0,0,0-4,.2c-14.5,3.8-21.9,19-17.8,32.6,3.3,10.8,15.4,19.9,25.1,18.9C599.7,62,607.2,49.8,604,35.1Z"/><path d="M589 81.7c-4.2-.1-8.4 0-12.5 0-6.5 0-6.5 0-6.5 6.7q0 55.5.1 110.9c0 8 .7 15.9 1.1 24.4 6.1 0 11.8-.2 17.4.1s5.6-2.3 6-5.6a92.1 92.1 0 0 0 .4-10.5V87.9c0-4-2.1-6.1-6-6.2z"/><path d="M361.2 82.8a66.3 66.3 0 0 0-31.6-2.2c-24.2 4.5-40.6 18.5-50.5 40.7-5.4 11.9-5.5 24.6-5.1 37.3.3 10.5 3.5 20.1 8.9 29.4 5.7-4.9 11.3-9.5 16.5-14.4 1.1-1 1.9-3.6 1.4-4.9-3.7-10.2-3.8-20.7-1.7-31.1 3.1-14.8 10.9-26.2 25.6-32.3a46.1 46.1 0 0 1 25.9-2.4c7.4 1.4 14.6 4.5 20 11.2l-27.5 25-50.8 46.6a152.1 152.1 0 0 1-20.6 14.9c-4.7 3-8.8 1-9.6-4.7a164.8 164.8 0 0 1-1-18.7c-.2-9.7-.1-19.5-.1-29.7l-21.6 9.6c-1.2.5-2.2 2.6-2.3 4.1-.2 7 0 14-.1 21a7 7 0 0 1-1.1 4.1c-10.5 12.7-24 18.9-40.4 17.3s-22.1-16.4-16.5-27.8c.7-1.5 1.3-3.1 1.8-4.1-6.8-.8-13.3-1.1-19.5-2.5-3.5-.9-4.8.2-6 2.9-3.4 7.4-3.5 15.6-1.8 22.9 5.9 25.3 27.8 32.5 48.7 30.4a62.3 62.3 0 0 0 35.6-15.9c2.9 3.9 5.1 8.3 8.6 11.1 9.7 7.6 20.7 6.6 30.2.5A412.5 412.5 0 0 0 316 192c13.1-10.9 25.2-23 37.7-34.5l13.9-12.7 31.5-29.2a49.5 49.5 0 0 0-3.2-5.2c-8.6-12.9-19.6-22.9-34.7-27.6z"/><path d="M537 51h-24v45.6l-7.1-5.9c-11.3-8.5-24.3-11.3-38.3-11-15.8.3-29.3 6.1-40.6 16.8-13.7 12.9-20.3 29.5-21.7 48s1.2 33.5 9.9 48.5c11.9 20.3 29.7 31.4 53.2 32.7 16.8.9 31.6-4.4 44.8-15.3 15.2-12.6 23-28.9 23.5-47.8 1-35.4.3-70.9.3-106.4zm-30.2 131.1c-13 24.7-44.9 26.5-62 10.1-11.5-11.2-15.1-24.8-14.8-41.3-1-13.4 3.5-26.3 13.5-36.8 6.4-6.8 14.4-11.9 24.5-11.4 5.7.3 11.7.2 17.1 1.7 14.5 4.2 23.2 14.8 26.6 29 4.1 16.6 3.3 33.2-4.9 48.7z"/></g></svg>
